<svg width="34" height="34" viewBox="57 2 26 34" fill="none" xmlns="http://www.w3.org/2000/svg">
<path d="M82.0417 12.9167V24.25H61.9958C59.7717 24.25 57.9583 26.0633 57.9583 28.2875V12.9167C57.9583 7.25 59.375 5.83333 65.0417 5.83333H74.9583C80.625 5.83333 82.0417 7.25 82.0417 12.9167Z" fill="#EBEBEB"/>
<path d="M82.0417 24.25V29.2083C82.0417 31.9425 79.8175 34.1667 77.0833 34.1667H62.9167C60.1825 34.1667 57.9583 31.9425 57.9583 29.2083V28.2875C57.9583 26.0633 59.7717 24.25 61.9958 24.25H82.0417Z" fill="#A8A8A8"/>
<path d="M75.6667 13.9792H64.3333C63.7525 13.9792 63.2708 13.4975 63.2708 12.9167C63.2708 12.3358 63.7525 11.8542 64.3333 11.8542H75.6667C76.2475 11.8542 76.7292 12.3358 76.7292 12.9167C76.7292 13.4975 76.2475 13.9792 75.6667 13.9792Z" fill="#A8A8A8"/>
<path d="M71.4167 18.9375H64.3333C63.7525 18.9375 63.2708 18.4558 63.2708 17.875C63.2708 17.2942 63.7525 16.8125 64.3333 16.8125H71.4167C71.9975 16.8125 72.4792 17.2942 72.4792 17.875C72.4792 18.4558 71.9975 18.9375 71.4167 18.9375Z" fill="#A8A8A8"/>
</svg>