<svg width="34" height="34" viewBox="0 0 34 34" fill="none" xmlns="http://www.w3.org/2000/svg">
<path d="M14.2659 6.99502L4.44834 14.8575C3.34334 15.7358 2.63501 17.5917 2.87584 18.98L4.76001 30.2567C5.10001 32.2683 7.02667 33.8975 9.06667 33.8975H24.9334C26.9592 33.8975 28.9 32.2542 29.24 30.2567L31.1242 18.98C31.3508 17.5917 30.6425 15.7358 29.5517 14.8575L19.7342 7.00915C18.2183 5.79082 15.7675 5.79085 14.2659 6.99502Z" fill="#EBEBEB"/>
<path d="M17 24.9583C18.956 24.9583 20.5417 23.3727 20.5417 21.4167C20.5417 19.4607 18.956 17.875 17 17.875C15.044 17.875 13.4583 19.4607 13.4583 21.4167C13.4583 23.3727 15.044 24.9583 17 24.9583Z" fill="#A8A8A8"/>
</svg>