<svg width="34" height="34" viewBox="108 0 30 37" fill="none" xmlns="http://www.w3.org/2000/svg">
<path d="M137.167 8.5V11.9283C137.167 14.1667 135.75 15.5833 133.512 15.5833H128.667V5.68083C128.667 4.10833 129.956 2.83333 131.528 2.83333C133.073 2.8475 134.489 3.47083 135.509 4.49083C136.529 5.525 137.167 6.94167 137.167 8.5Z" fill="#A8A8A8"/>
<path d="M108.833 9.91667V29.75C108.833 30.9258 110.165 31.5917 111.1 30.8833L113.522 29.07C114.089 28.645 114.883 28.7017 115.393 29.2117L117.744 31.5775C118.297 32.13 119.203 32.13 119.756 31.5775L122.136 29.1975C122.632 28.7017 123.425 28.645 123.977 29.07L126.4 30.8833C127.335 31.5775 128.667 30.9117 128.667 29.75V5.66667C128.667 4.10833 129.942 2.83333 131.5 2.83333H115.917H114.5C110.25 2.83333 108.833 5.36917 108.833 8.5V9.91667Z" fill="#EBEBEB"/>
<path d="M123 13.8125H114.5C113.919 13.8125 113.438 13.3308 113.438 12.75C113.438 12.1692 113.919 11.6875 114.5 11.6875H123C123.581 11.6875 124.062 12.1692 124.062 12.75C124.062 13.3308 123.581 13.8125 123 13.8125Z" fill="#A8A8A8"/>
<path d="M121.937 19.4792H115.562C114.982 19.4792 114.5 18.9975 114.5 18.4167C114.5 17.8358 114.982 17.3542 115.562 17.3542H121.937C122.518 17.3542 123 17.8358 123 18.4167C123 18.9975 122.518 19.4792 121.937 19.4792Z" fill="#A8A8A8"/>
</svg>