<svg width="36" height="36" viewBox="102 1 32 36" fill="none" xmlns="http://www.w3.org/2000/svg">
<path d="M132.75 16.285H128.415C124.86 16.285 121.965 13.39 121.965 9.835V5.5C121.965 4.675 121.29 4 120.465 4H114.105C109.485 4 105.75 7 105.75 12.355V25.645C105.75 31 109.485 34 114.105 34H125.895C130.515 34 134.25 31 134.25 25.645V17.785C134.25 16.96 133.575 16.285 132.75 16.285Z" fill="#A8A8A8"/>
<path d="M125.7 4.31499C125.085 3.69999 124.02 4.11999 124.02 4.97499V10.21C124.02 12.4 125.88 14.215 128.145 14.215C129.57 14.23 131.55 14.23 133.245 14.23C134.1 14.23 134.55 13.225 133.95 12.625C131.79 10.45 127.92 6.53499 125.7 4.31499Z" fill="#F7F7F7"/>
<path d="M119.295 19.705L116.295 16.705C116.175 16.585 116.055 16.51 115.935 16.45C115.785 16.405 115.665 16.39 115.545 16.375C115.425 16.375 115.23 16.405 115.14 16.435C115.035 16.48 114.915 16.54 114.705 16.705L111.705 19.705C111.27 20.14 111.27 20.86 111.705 21.295C112.14 21.73 112.86 21.73 113.295 21.295L114.375 20.215V26.5C114.375 27.115 114.885 27.625 115.5 27.625C116.115 27.625 116.625 27.115 116.625 26.5V20.215L117.705 21.295C117.93 21.52 118.215 21.625 118.5 21.625C118.785 21.625 119.07 21.52 119.295 21.295C119.73 20.86 119.73 20.14 119.295 19.705Z" fill="#F7F7F7"/>
</svg>