<svg width="36" height="36" viewBox="51 0 36 36" fill="none" xmlns="http://www.w3.org/2000/svg">
<path d="M86 18C86 27.3888 78.3888 35 69 35C59.6112 35 52 27.3888 52 18C52 8.61116 59.6112 1 69 1C78.3888 1 86 8.61116 86 18Z" fill="#34A740"/>
<path d="M63.963 21.1481V22.4074C63.963 22.7414 64.0956 23.0617 64.3318 23.2978C64.5679 23.534 64.8882 23.6667 65.2222 23.6667H72.7778C73.1118 23.6667 73.4321 23.534 73.6682 23.2978C73.9044 23.0617 74.037 22.7414 74.037 22.4074V21.1481M72.1481 17.3704L69 20.5185L65.8519 17.3704M69 20.5185V12.963M86 18C86 27.3888 78.3888 35 69 35C59.6112 35 52 27.3888 52 18C52 8.61116 59.6112 1 69 1C78.3888 1 86 8.61116 86 18Z" stroke="#17381A" stroke-width="1.5" stroke-linecap="round" stroke-linejoin="round"/>
</svg>