<svg width="34" height="34" viewBox="162 0 28 37" fill="none" xmlns="http://www.w3.org/2000/svg">
<path d="M185.832 10.6783L178.508 6.4425C177.105 5.635 174.909 5.635 173.507 6.4425L166.112 10.7067C163.179 12.69 163.009 12.9875 163.009 16.1467V23.8392C163.009 26.9983 163.179 27.31 166.168 29.3217L173.493 33.5575C174.201 33.9683 175.108 34.1667 176 34.1667C176.893 34.1667 177.799 33.9683 178.493 33.5575L185.888 29.2933C188.821 27.31 188.991 27.0125 188.991 23.8533V16.1467C188.991 12.9875 188.821 12.69 185.832 10.6783Z" fill="#34A740"/>
<path d="M176 24.6042C178.543 24.6042 180.604 22.5428 180.604 20C180.604 17.4572 178.543 15.3958 176 15.3958C173.457 15.3958 171.396 17.4572 171.396 20C171.396 22.5428 173.457 24.6042 176 24.6042Z" fill="#16381A"/>
</svg>